<svg id="Layer_1" enable-background="new 0 0 510 510" height="512" viewBox="0 0 510 510" width="512" xmlns="http://www.w3.org/2000/svg"><g><path d="m135 180h225v-120h-225zm30-90h165v60h-165z"/><path d="m135 210h105v30h-105z"/><path d="m135 270h225v30h-225z"/><path d="m510 180v-90h-30v-60h-60v-30c-12.703 0-326.695 0-345 0-41.355 0-75 33.645-75 75v375c0 33.084 26.916 60 60 60h360v-30h-30v-60h30v-45h60v-90h-60v-105zm-30-30h-60v-30h60zm-30-90v30h-30v-30zm-390 330c-10.925 0-21.167 2.949-30 8.072v-188.072h45v180zm15-210h-45v-30h45zm0-150v90h-45v-45c0-24.813 20.187-45 45-45zm285 450h-300c-39.809-1.653-39.778-58.362 0-60h300zm90-165v30h-30v-30zm-60 75h-285v-360h285z"/></g></svg>